<?xml version="1.0" standalone="no"?>
<svg version="1.1" id="downloadSvg" xmlns="http://www.w3.org/2000/svg" xmlns:xlink="http://www.w3.org/1999/xlink" x="0px" y="0px" viewBox="0 0 1200 1200" enable-background="new 0 0 1200 1200" xml:space="preserve" height="512" width="512">
<g>
	<g>
		<g>
			<path fill="#4C98CC" d="M91.174,827.106c51.488,8.361,302.202-76.069,450.568-58.278c13.454,1.635,26.53,5.783,38.475,12.322&#10;&#9;&#9;&#9;&#9;c15.654,8.487,49.098,22.695,113.224,35.268c99.706,19.552,175.965,7.795,287.428,0c111.463-7.858,209.222-25.398,152.516-84.116&#10;&#9;&#9;&#9;&#9;c-56.706-58.655-123.22-39.103-123.22-39.103s64.565-156.413-242.477-246.376c-306.98-89.9-326.532-97.758-494.702-27.347&#10;&#9;&#9;&#9;&#9;C104.816,489.888,52.071,587.646,52.071,673.648C52.071,759.713,36.418,818.242,91.174,827.106z" style="fill: rgb(0, 0, 0);"/>
			<path fill="#3672A4" d="M1010.837,693.91c0,0-0.067,0.518-0.25,1.467c-0.182,0.945-0.581,2.312-1.207,4.061&#10;&#9;&#9;&#9;&#9;c-0.625,1.819-1.526,3.749-2.672,6.047c-0.59,1.125-1.251,2.318-1.969,3.596c-0.773,1.183-1.59,2.444-2.504,3.737&#10;&#9;&#9;&#9;&#9;c-0.917,1.285-1.911,2.62-3,3.971c-1.072,1.387-2.258,2.74-3.554,4.035c-2.573,2.646-5.495,5.36-8.772,8.052&#10;&#9;&#9;&#9;&#9;c-3.336,2.526-7.046,4.963-11.082,7.322c-4.017,2.431-8.467,4.406-13.026,6.667c-2.287,1.112-4.622,2.247-7.002,3.404&#10;&#9;&#9;&#9;&#9;c-1.194,0.565-2.382,1.189-3.612,1.721c-1.233,0.525-2.476,1.054-3.73,1.588c-5.017,2.13-10.204,4.333-15.537,6.598&#10;&#9;&#9;&#9;&#9;c-2.656,1.174-5.439,2.052-8.216,3.078c-2.785,0.996-5.604,2.004-8.453,3.024c-5.707,2.005-11.485,4.242-17.512,5.928&#10;&#9;&#9;&#9;&#9;c-5.986,1.838-12.108,3.589-18.282,5.414c-1.545,0.453-3.093,0.907-4.647,1.363c-1.557,0.435-3.14,0.777-4.714,1.171&#10;&#9;&#9;&#9;&#9;c-3.154,0.763-6.325,1.53-9.508,2.3c-6.358,1.563-12.794,3.014-19.235,4.528c-6.493,1.203-13.013,2.411-19.532,3.618&#10;&#9;&#9;&#9;&#9;c-6.526,1.145-13.039,2.357-19.545,3.385c-6.536,0.826-13.03,1.718-19.489,2.473c-6.448,0.778-12.846,1.55-19.167,2.312&#10;&#9;&#9;&#9;&#9;c-6.327,0.638-12.613,0.938-18.769,1.396c-6.156,0.409-12.211,0.812-18.135,1.206c-2.961,0.178-5.889,0.354-8.783,0.528&#10;&#9;&#9;&#9;&#9;c-2.891,0.178-5.763,0.137-8.585,0.215c-11.304,0.147-21.971,0.281-31.808,0.292c-2.458,0.005-4.865,0.01-7.217,0.015&#10;&#9;&#9;&#9;&#9;c-2.35,0.017-4.646,0.024-6.891-0.121c-4.482-0.207-8.732-0.404-12.727-0.589c-7.986-0.413-14.936-0.765-20.656-1.158&#10;&#9;&#9;&#9;&#9;c-5.714-0.375-10.203-0.67-13.265-0.871c-3.057-0.237-4.688-0.363-4.688-0.363s1.622-0.249,4.665-0.717&#10;&#9;&#9;&#9;&#9;c3.039-0.432,7.495-1.065,13.167-1.87c5.666-0.824,12.542-1.699,20.416-2.712c3.935-0.485,8.122-1.001,12.535-1.545&#10;&#9;&#9;&#9;&#9;c1.103-0.136,2.219-0.275,3.349-0.415c1.127-0.178,2.267-0.357,3.422-0.539c2.306-0.364,4.666-0.735,7.076-1.115&#10;&#9;&#9;&#9;&#9;c9.635-1.528,20.062-3.062,31.071-4.679c2.75-0.419,5.551-0.725,8.358-1.252c2.806-0.522,5.646-1.052,8.517-1.586&#10;&#9;&#9;&#9;&#9;c5.737-1.032,11.6-2.086,17.561-3.158c5.952-1.083,12.015-2.099,18.12-3.249c6.07-1.314,12.215-2.644,18.408-3.985&#10;&#9;&#9;&#9;&#9;c6.183-1.364,12.432-2.608,18.688-3.925c6.219-1.472,12.404-3.165,18.619-4.708c6.208-1.546,12.415-3.092,18.599-4.632&#10;&#9;&#9;&#9;&#9;c6.097-1.811,12.149-3.673,18.182-5.396c3.012-0.873,6.012-1.743,8.997-2.608c1.488-0.444,2.991-0.837,4.455-1.32&#10;&#9;&#9;&#9;&#9;c1.458-0.502,2.911-1.002,4.36-1.501c5.799-1.982,11.506-3.991,17.155-5.852c5.694-1.762,11.053-4.037,16.375-6.081&#10;&#9;&#9;&#9;&#9;c2.654-1.036,5.28-2.061,7.873-3.074c2.58-1.038,5.193-1.938,7.624-3.107c4.94-2.174,9.747-4.289,14.395-6.335&#10;&#9;&#9;&#9;&#9;c1.162-0.51,2.315-1.016,3.457-1.517c1.138-0.508,2.213-1.097,3.307-1.633c2.175-1.093,4.31-2.166,6.4-3.217&#10;&#9;&#9;&#9;&#9;c4.18-2.097,8.225-4.072,11.879-6.172c3.724-2.001,7.408-3.645,10.961-5.055c3.439-1.534,6.804-2.775,10.043-3.785&#10;&#9;&#9;&#9;&#9;c0.818-0.244,1.618-0.484,2.402-0.718c0.76-0.255,1.51-0.499,2.26-0.718c1.486-0.459,2.948-0.849,4.361-1.202&#10;&#9;&#9;&#9;&#9;c2.878-0.66,5.451-1.237,7.744-1.718c2.33-0.44,4.453-0.758,6.087-0.995c1.674-0.257,3.08-0.382,4.046-0.518&#10;&#9;&#9;&#9;&#9;c0.965-0.133,1.49-0.173,1.49-0.173L1010.837,693.91z" style="fill: rgb(255, 255, 255);"/>
		</g>
		<path opacity="0.2" fill="#042338" d="M597.584,787.728c4.885-0.281,9.133,1.614,13.447,3.729&#10;&#9;&#9;&#9;c2.444,1.198,4.846,2.292,7.266,3.313c12.615-1.933,25.014-5.539,37.805-6.381c19.961-1.314,39.953-1.557,59.895-3.338&#10;&#9;&#9;&#9;c31.995-2.857,63.98-8.411,95.762-13.093c31.02-4.57,62.225-10.283,91.447-22.006c12.932-5.187,27.191-11.253,37.754-20.525&#10;&#9;&#9;&#9;c5.381-4.724,10.206-11.026,16.683-14.265c6.017-3.01,12.924-3.906,19.349-5.672c17.019-4.679,25.161-21.589,37.333-32.716&#10;&#9;&#9;&#9;c2.355-14.586,3.105-37.74-6.926-64.804c-0.025,0.151-0.044,0.303-0.07,0.455c-2.801,16.639-7.355,36.515-20.956,47.88&#10;&#9;&#9;&#9;c-7.766,6.488-16.848,6.085-26.433,5.674c-7.393-0.317-14.031,0.406-20.385,4.402c-4.105,2.582-7.736,5.852-11.774,8.532&#10;&#9;&#9;&#9;c-18.022,11.961-35.816,5.02-54.196-1.703c-10.863-3.974-24.357-7.576-33.176,2.26c-6.026,6.721-10.27,13.48-18.394,18.035&#10;&#9;&#9;&#9;c-8.707,4.882-19.283,6.902-29.002,8.743c-11.295,2.14-22.657,3.952-34.087,5.203c-21.952,2.402-44.315,2.763-66.132-1.059&#10;&#9;&#9;&#9;c-21.13-3.701-41.475-11.626-58.97-24.133c-18.97-13.561-33.131-32.517-51.632-46.74c-35.876-27.58-78.752-38.484-123.612-35.234&#10;&#9;&#9;&#9;c-54.008,3.912-107.152,23.205-161.723,17.624c-20.848-2.132-46.339-7.008-61.473-22.884&#10;&#9;&#9;&#9;c-10.149-10.646-12.406-25.22-9.312-39.213c7.571-34.248,36.234-61.379,62.379-82.606c39.344-31.943,85.037-55.337,132.189-73.421&#10;&#9;&#9;&#9;c22.597-8.667,45.612-16.332,69.001-22.561c4.922-1.311,9.915-2.653,14.955-3.927c-85.051-13.612-132.549,0.702-231.61,42.178&#10;&#9;&#9;&#9;C104.816,489.888,52.071,587.646,52.071,673.648c0,86.065-15.654,144.594,39.103,153.459&#10;&#9;&#9;&#9;c51.488,8.361,302.202-76.069,450.568-58.278c13.454,1.635,26.53,5.783,38.475,12.322c3.963,2.149,9.072,4.665,15.524,7.427&#10;&#9;&#9;&#9;C596.159,788.107,596.763,787.774,597.584,787.728z" style="fill: rgb(0, 0, 0);"/>
		<path opacity="0.2" fill="#042338" d="M1020.301,704.476c3.039-4.385,5.683-9.105,7.408-14.049&#10;&#9;&#9;&#9;c-10.888,0.819-17.544,2.773-17.544,2.773s0.949-2.312,2.069-6.51c-3.618,4.147-6.957,8.556-10.343,12.346&#10;&#9;&#9;&#9;c-3.674,4.113-7.599,8.256-12.348,11.148c-6.673,4.064-14.715,5.075-22.122,7.109c-10.157,2.789-15.528,9.556-23.084,16.103&#10;&#9;&#9;&#9;c-5.414,4.69-11.744,8.131-18.064,11.444c-13.969,7.323-28.761,12.978-43.866,17.47c-27.595,8.206-56.153,12.49-84.613,16.404&#10;&#9;&#9;&#9;c-32.06,4.409-63.966,9.963-96.293,12.034c-17.005,1.09-34.326,0.467-51.244,2.394c-8.443,0.962-16.713,2.825-25.027,4.23&#10;&#9;&#9;&#9;c1.276,0.415,2.558,0.82,3.889,1.175c13.052,3.48,26.143,6.87,39.411,9.434c53.055,10.25,107.57,1.395,160.741-3.709&#10;&#9;&#9;&#9;c48.945-4.698,97.13-13.934,144.341-27.581c-3.832-2.979-6.936-6.94-5.744-12.024c1.478-6.307,8.639-10.288,13.906-12.975&#10;&#9;&#9;&#9;c14.24-7.265,29.819-10.745,45.119-14.962c-4.982-3.542-10.057-5.073-15.809-8.012c-2.625-1.341-4.107-2.905-3.572-6.011&#10;&#9;&#9;&#9;C1008.654,716.077,1016.649,709.745,1020.301,704.476z" style="fill: rgb(0, 0, 0);"/>
		<path opacity="0.2" fill="#3D1708" d="M786.438,826.796c20.77-1.738,41.51-3.855,62.225-6.154&#10;&#9;&#9;&#9;c38.724-4.298,77.489-9.776,115.084-20.261c32.769-9.14,71.452-20.915,95.144-46.793c11.162-12.192,27.139-30.973,19.429-48.51&#10;&#9;&#9;&#9;c-1.945-4.425-4.733-7.872-8.113-10.726c-33.679-8.893-60.043-1.151-60.043-1.151s16.086-38.977-5.993-89.208&#10;&#9;&#9;&#9;c-8.157,11.063-18.268,20.559-30.647,27.384c-16.798,9.262-35.804,13.289-54.441,17.005c-22.082,4.402-43.78,10.566-65.915,14.702&#10;&#9;&#9;&#9;c-29.355,5.486-63.164,7.439-90.715-6.395c-22.428-11.261-33.828-33.183-46.982-53.296&#10;&#9;&#9;&#9;c-17.324-26.489-43.798-38.981-74.823-41.391c-21.348-1.659-42.828-0.839-64.193-2.475c-21.969-1.681-45.394-4.853-64.917-15.774&#10;&#9;&#9;&#9;c-19.35-10.825-28.793-27.98-31.268-49.648c-1.607-14.064-0.916-30.142,8.892-41.325c10.88-12.405,26.906-21.184,40.99-29.384&#10;&#9;&#9;&#9;c17.393-10.127,35.417-21.237,54.508-28.639c-142.991-36.874-185.51-28.103-311.674,24.72&#10;&#9;&#9;&#9;C104.816,489.889,52.071,587.647,52.071,673.649c0,86.066-15.654,144.595,39.103,153.459&#10;&#9;&#9;&#9;c51.488,8.361,302.202-76.069,450.568-58.278c13.454,1.635,26.529,5.784,38.475,12.323c15.654,8.487,49.098,22.695,113.224,35.268&#10;&#9;&#9;&#9;C726.287,822.861,756.585,825.89,786.438,826.796z" style="fill: rgb(0, 0, 0);"/>
	</g>
	<g opacity="0.2">
		<g>
			<path fill="#062D47" d="M628.226,794.133c33.737,5.314,70.01-6.181,102.468-14.119c34.141-8.35,68.489-15.816,102.654-24.062&#10;&#9;&#9;&#9;&#9;c34.158-8.244,68.332-17.124,101.509-28.777c31.696-11.133,57.569-28.745,83.426-49.865c3.135-2.561-0.419-7.74-3.74-5.028&#10;&#9;&#9;&#9;&#9;c-12.109,9.89-24.168,19.878-37.347,28.337c-14.648,9.402-30.583,16.082-46.989,21.741&#10;&#9;&#9;&#9;&#9;c-32.517,11.216-65.863,19.953-99.258,28.105c-33.711,8.229-67.594,15.74-101.275,24.095&#10;&#9;&#9;&#9;&#9;c-16.671,4.136-33.314,8.472-50.227,11.526c-17.218,3.108-34.016,3.608-51.444,4.011&#10;&#9;&#9;&#9;&#9;C625.264,790.159,625.883,793.764,628.226,794.133L628.226,794.133z" style="fill: rgb(255, 255, 255);"/>
		</g>
		<g>
			<path fill="#062D47" d="M864.766,763.67c28.619-3.91,57.7-16.371,82.96-30.016c24.935-13.469,51.78-30.079,67.018-54.667&#10;&#9;&#9;&#9;&#9;c2.172-3.505-3.215-6.212-5.336-2.686c-15.224,25.318-41.879,42.166-67.422,55.659c-25.118,13.269-51.164,20.429-78.089,28.597&#10;&#9;&#9;&#9;&#9;C862.244,761.058,863.209,763.883,864.766,763.67L864.766,763.67z" style="fill: rgb(255, 255, 255);"/>
		</g>
		<g>
			<path fill="#062D47" d="M1015.003,677.571c-5.677,5.143-9.001,12.893-13.485,19.114c-5.715,7.929-12.275,15.227-19.487,21.821&#10;&#9;&#9;&#9;&#9;c-16.491,15.077-36.11,24.675-56.822,32.592c-19.471,7.442-39.333,14.634-59.857,18.472&#10;&#9;&#9;&#9;&#9;c-22.733,4.252-45.544,8.078-68.197,12.744c-4.819,0.993-3.337,8.554,1.433,7.709c45.817-8.114,90.703-16.97,133.845-34.899&#10;&#9;&#9;&#9;&#9;c19.192-7.976,37.595-18.323,52.905-32.505c6.593-6.108,12.65-12.746,18.083-19.909c5.114-6.743,12.522-15.492,13.063-24.194&#10;&#9;&#9;&#9;&#9;C1016.535,677.682,1015.747,676.897,1015.003,677.571L1015.003,677.571z" style="fill: rgb(255, 255, 255);"/>
		</g>
		<g>
			<path fill="#062D47" d="M1006.083,690.698c-12.958,11.945-25.739,25.012-39.901,35.566&#10;&#9;&#9;&#9;&#9;c-13.778,10.269-30.97,13.038-45.449,21.976c-2.047,1.263,0.464,3.98,2.301,3.267c15.99-6.212,32.641-10.649,46.368-21.375&#10;&#9;&#9;&#9;&#9;c14.032-10.964,26.455-24.071,38.565-37.049C1009.066,691.903,1007.402,689.482,1006.083,690.698L1006.083,690.698z" style="fill: rgb(255, 255, 255);"/>
		</g>
		<g>
			<path fill="#062D47" d="M630.238,798.062c11.934,4.284,26.42,2.967,38.898,2.544c12.758-0.432,25.495-1.376,38.154-3.033&#10;&#9;&#9;&#9;&#9;c23.527-3.08,46.784-7.965,68.917-16.664c2.262-0.889,0.631-4.024-1.456-3.607c-23.79,4.758-47.293,10.552-71.422,13.481&#10;&#9;&#9;&#9;&#9;c-12.221,1.484-24.488,2.55-36.794,2.99c-11.829,0.422-23.784-0.555-35.564,0.2C628.405,794.138,627.636,797.129,630.238,798.062&#10;&#9;&#9;&#9;&#9;L630.238,798.062z" style="fill: rgb(255, 255, 255);"/>
		</g>
		<g>
			<path fill="#062D47" d="M652.145,798.342c10.065,8.698,30.274,6.593,42.842,6.523c16.51-0.092,32.99-1.575,49.311-4.02&#10;&#9;&#9;&#9;&#9;c30.628-4.587,62.245-11.543,90.965-23.301c2.147-0.879,0.871-3.991-1.257-3.604c-29.379,5.337-57.738,15.057-87.308,19.861&#10;&#9;&#9;&#9;&#9;c-14.23,2.312-28.581,3.9-42.99,4.468c-15.962,0.629-33.498,1.177-48.982-3.09C653.022,794.711,650.181,796.645,652.145,798.342&#10;&#9;&#9;&#9;&#9;L652.145,798.342z" style="fill: rgb(255, 255, 255);"/>
		</g>
		<g>
			<path fill="#062D47" d="M582.107,725.572c16.832,22.016,32.013,45.03,46.742,68.477c2.008,3.196,6.668-0.549,4.909-3.631&#10;&#9;&#9;&#9;&#9;c-13.686-23.986-30.579-46.125-48.52-67.029C583.629,721.514,580.443,723.396,582.107,725.572L582.107,725.572z" style="fill: rgb(255, 255, 255);"/>
		</g>
		<g>
			<path fill="#062D47" d="M566.155,747.863c7.669,11.177,17.537,19.796,28.163,28.077c10.029,7.816,19.197,17.314,29.442,24.665&#10;&#9;&#9;&#9;&#9;c1.323,0.949,4.779,0.101,3.538-2.031c-5.843-10.036-16.974-17.171-26.043-24.092c-11.323-8.641-22.764-17.114-31.672-28.381&#10;&#9;&#9;&#9;&#9;C568.308,744.49,564.776,745.854,566.155,747.863L566.155,747.863z" style="fill: rgb(255, 255, 255);"/>
		</g>
		<g>
			<path fill="#062D47" d="M582.319,749.375c11.98,15.89,26.85,29.437,39.38,44.868c1.114,1.371,3.333,0.78,3.119-1.087&#10;&#9;&#9;&#9;&#9;c-1.013-8.827-9.507-15.112-15.305-21.136c-8.223-8.542-16.401-17.159-25.337-24.961&#10;&#9;&#9;&#9;&#9;C582.581,745.665,581.273,747.988,582.319,749.375L582.319,749.375z" style="fill: rgb(255, 255, 255);"/>
		</g>
		<g>
			<path fill="#062D47" d="M610.149,734.695c4.916,9.435,10.479,18.588,14.918,28.261c4.335,9.447,6.157,19.152,8.782,29.093&#10;&#9;&#9;&#9;&#9;c0.419,1.589,3.233,2.586,3.502,0.368c2.601-21.428-13.214-41.515-23.481-58.956C612.71,731.49,608.897,732.292,610.149,734.695&#10;&#9;&#9;&#9;&#9;L610.149,734.695z" style="fill: rgb(255, 255, 255);"/>
		</g>
		<g>
			<path fill="#062D47" d="M630.982,723.271c4.006,10.495,7.388,21.158,9.865,32.122c2.419,10.706,2.821,21.773,5.223,32.417&#10;&#9;&#9;&#9;&#9;c0.431,1.91,4.276,2.855,4.43,0.35c1.362-22.153-6.468-46.083-15.135-66.152C634.467,719.929,630.094,720.943,630.982,723.271&#10;&#9;&#9;&#9;&#9;L630.982,723.271z" style="fill: rgb(255, 255, 255);"/>
		</g>
		<g>
			<path fill="#062D47" d="M566.886,763.816c16.351,10.114,31.859,21.688,48.525,31.238c1.544,0.885,2.733-1.099,1.52-2.271&#10;&#9;&#9;&#9;&#9;c-13.606-13.142-30.886-22.803-47.259-32.041C567.427,759.476,564.322,762.229,566.886,763.816L566.886,763.816z" style="fill: rgb(255, 255, 255);"/>
		</g>
		<g>
			<path fill="#062D47" d="M582.842,781.501c20.717-7.393,41.829-11.978,62.946-17.847c2.408-0.669,1.466-4.105-0.898-3.839&#10;&#9;&#9;&#9;&#9;c-21.585,2.434-43.456,10.095-63.612,17.924C578.582,778.786,580.348,782.391,582.842,781.501L582.842,781.501z" style="fill: rgb(255, 255, 255);"/>
		</g>
		<g>
			<path fill="#062D47" d="M620.487,788.077c12.472-2.476,25.978-6.03,37.203-12.119c1.992-1.081-0.052-3.969-1.904-3.345&#10;&#9;&#9;&#9;&#9;c-12.114,4.081-23.71,9.06-36.038,12.635C618.363,785.65,619.124,788.348,620.487,788.077L620.487,788.077z" style="fill: rgb(255, 255, 255);"/>
		</g>
		<g>
			<path fill="#062D47" d="M678.362,774.624c25.157-2.115,50.277-7.938,74.605-14.476c25.1-6.746,50.993-14.254,74.603-25.248&#10;&#9;&#9;&#9;&#9;c1.792-0.834,0.325-3.667-1.418-3.061c-23.243,8.081-45.982,16.97-69.731,23.601c-25.749,7.189-51.899,11.911-77.977,17.616&#10;&#9;&#9;&#9;&#9;C677.665,773.226,677.351,774.709,678.362,774.624L678.362,774.624z" style="fill: rgb(255, 255, 255);"/>
		</g>
		<g>
			<path fill="#062D47" d="M681.191,751.843c47.17,5.563,92.233-12.551,138.053-20.359c2.445-0.417,1.16-3.794-0.978-3.493&#10;&#9;&#9;&#9;&#9;c-45.707,6.438-90.237,24.036-136.942,20.111C678.562,747.869,678.616,751.539,681.191,751.843L681.191,751.843z" style="fill: rgb(255, 255, 255);"/>
		</g>
		<g>
			<path fill="#062D47" d="M705.131,732.76c-9.958,8.85-19.459,18.171-28.369,28.079c-3.825,4.253-13.484,11.853-12.147,18.52&#10;&#9;&#9;&#9;&#9;c0.454,2.263,3.818,2.473,4.474,0.242c2.59-8.801,13.774-18.114,20.003-24.587c6.213-6.457,12.697-12.628,19.375-18.602&#10;&#9;&#9;&#9;&#9;C711.094,734.062,707.662,730.512,705.131,732.76L705.131,732.76z" style="fill: rgb(255, 255, 255);"/>
		</g>
		<g>
			<path fill="#062D47" d="M730.533,728.656c-9.335,9.365-18.575,18.821-27.714,28.377c-5.444,5.692-12.758,11.621-14.723,19.542&#10;&#9;&#9;&#9;&#9;c-0.649,2.617,3.774,3.35,4.725,1.128c4.254-9.944,13.873-17.691,21.285-25.442c6.515-6.813,13.095-13.563,19.71-20.279&#10;&#9;&#9;&#9;&#9;C736.108,729.654,732.674,726.509,730.533,728.656L730.533,728.656z" style="fill: rgb(255, 255, 255);"/>
		</g>
		<g>
			<path fill="#062D47" d="M744.44,727.322c-7.47,6.25-14.731,12.733-21.719,19.519c-4.722,4.586-14.078,11.167-15.806,17.669&#10;&#9;&#9;&#9;&#9;c-0.267,1.003,0.578,1.998,1.456,2.326c1.259,0.47,3.594,0.547,3.871-1.275c0.15-0.988-0.925-1.245-1.003-1.883&#10;&#9;&#9;&#9;&#9;c-0.022-0.184-0.87-0.371-1.017-0.346c2.687-0.445-1.471,3.577,3.46,0.097c5.724-4.039,10.483-10.973,15.584-15.863&#10;&#9;&#9;&#9;&#9;c5.984-5.737,12.173-11.246,18.51-16.59C750.477,728.696,747.03,725.155,744.44,727.322L744.44,727.322z" style="fill: rgb(255, 255, 255);"/>
		</g>
		<g>
			<path fill="#062D47" d="M760.453,729.247c-8.571,7.665-18.928,16.568-24.539,26.729c-1.167,2.113,1.986,4.019,3.657,2.642&#10;&#9;&#9;&#9;&#9;c4.41-3.633,7.711-8.836,11.595-13.049c4.184-4.538,8.601-8.842,13.186-12.974C767.076,730.141,763.029,726.944,760.453,729.247&#10;&#9;&#9;&#9;&#9;L760.453,729.247z" style="fill: rgb(255, 255, 255);"/>
		</g>
		<g>
			<path fill="#062D47" d="M765.841,737.681c-4,3.72-7.639,7.762-10.651,12.334c-2.182,3.311-6.674,9.343-5.517,13.487&#10;&#9;&#9;&#9;&#9;c0.338,1.213,2.049,2.487,3.126,1.22c3.033-3.568,4.468-8.393,7.011-12.358c2.58-4.024,5.635-7.677,9.137-10.933&#10;&#9;&#9;&#9;&#9;C771.469,739.086,768.287,735.407,765.841,737.681L765.841,737.681z" style="fill: rgb(255, 255, 255);"/>
		</g>
		<g>
			<path fill="#062D47" d="M825.978,711.147c2.717,12.299,4.288,26.755,10.047,38.016c0.768,1.503,3.104,1.075,3.06-0.652&#10;&#9;&#9;&#9;&#9;c-0.312-12.496-5.339-25.766-8.595-37.767C829.84,708.34,825.387,708.469,825.978,711.147L825.978,711.147z" style="fill: rgb(255, 255, 255);"/>
		</g>
		<g>
			<path fill="#062D47" d="M845.662,688.191c2.729,12.243,3.275,25.357,6.844,37.336c0.465,1.561,3.38,2.555,3.546,0.283&#10;&#9;&#9;&#9;&#9;c0.931-12.722-2.844-26.015-6.29-38.135C849.125,685.436,845.086,685.606,845.662,688.191L845.662,688.191z" style="fill: rgb(255, 255, 255);"/>
		</g>
		<g>
			<path fill="#062D47" d="M858.614,681.864c4.004,18.502,3.956,36.846,6.075,55.51c0.273,2.405,4.447,1.982,4.655-0.323&#10;&#9;&#9;&#9;&#9;c1.679-18.629-2.187-38.182-6.109-56.309C862.667,678.116,858.011,679.075,858.614,681.864L858.614,681.864z" style="fill: rgb(255, 255, 255);"/>
		</g>
		<g>
			<path fill="#062D47" d="M878.851,699.978c0.119,5.838,0.21,11.677,0.316,17.516c0.094,5.18-0.608,10.859,1.462,15.673&#10;&#9;&#9;&#9;&#9;c0.476,1.108,2.827,1.971,3.271,0.349c2.885-10.532,0.525-23.766,0.274-34.613C884.098,695.64,878.788,696.877,878.851,699.978&#10;&#9;&#9;&#9;&#9;L878.851,699.978z" style="fill: rgb(255, 255, 255);"/>
		</g>
		<g>
			<path fill="#062D47" d="M921.925,654.963c3.979,10.542,6.084,20.965,6.668,32.267c0.628,12.149-0.996,25.072,1.87,36.989&#10;&#9;&#9;&#9;&#9;c0.563,2.339,4.707,1.873,4.707-0.561c-0.002-22.205,1.922-50.318-10.745-69.696&#10;&#9;&#9;&#9;&#9;C923.528,652.591,921.252,653.181,921.925,654.963L921.925,654.963z" style="fill: rgb(255, 255, 255);"/>
		</g>
		<g>
			<path fill="#062D47" d="M951.246,643.479c3.156,18.497,1.386,35.779,0.216,54.341c-0.087,1.39,2.226,3.069,2.836,1.217&#10;&#9;&#9;&#9;&#9;c5.928-17.982,4.567-37.941,1.09-56.291C954.939,640.377,950.8,640.863,951.246,643.479L951.246,643.479z" style="fill: rgb(255, 255, 255);"/>
		</g>
		<g>
			<path fill="#062D47" d="M958.915,660.925c0.578,7.205,1.15,14.409,1.706,21.616c0.456,5.912,0.115,12.276,2.105,17.886&#10;&#9;&#9;&#9;&#9;c0.719,2.026,3.963,2.085,4.22-0.239c1.409-12.71-1.711-26.938-2.804-39.671C963.87,657.363,958.673,657.917,958.915,660.925&#10;&#9;&#9;&#9;&#9;L958.915,660.925z" style="fill: rgb(255, 255, 255);"/>
		</g>
		<g>
			<path fill="#062D47" d="M975.037,675.623c0.045,3.808,0.074,7.615,0.143,11.422c0.062,3.42-0.073,6.901,1.529,9.997&#10;&#9;&#9;&#9;&#9;c0.645,1.247,2.457,1.397,2.959,0c2.349-6.529,0.578-15.362,0.331-22.155C979.895,671.983,975.003,672.766,975.037,675.623&#10;&#9;&#9;&#9;&#9;L975.037,675.623z" style="fill: rgb(255, 255, 255);"/>
		</g>
		<g>
			<path fill="#062D47" d="M984.042,673.444c-0.243,4.688-1.735,11.471,0.596,15.727c0.508,0.927,2.195,1.579,2.814,0.371&#10;&#9;&#9;&#9;&#9;c2.367-4.618,1.596-11.052,1.719-16.123C989.248,670.321,984.195,670.507,984.042,673.444L984.042,673.444z" style="fill: rgb(255, 255, 255);"/>
		</g>
		<g>
			<path fill="#062D47" d="M997.8,666.565c-1.046,5.362-3.034,13.814-0.368,18.878c0.852,1.619,4.03,1.183,4.4-0.616&#10;&#9;&#9;&#9;&#9;c0.646-3.136,0.312-6.354,0.484-9.542c0.151-2.798,0.511-5.558,1.005-8.315C1003.978,663.306,998.448,663.245,997.8,666.565&#10;&#9;&#9;&#9;&#9;L997.8,666.565z" style="fill: rgb(255, 255, 255);"/>
		</g>
		<g>
			<path fill="#062D47" d="M1007.023,649.606c-0.581,6.579-1.879,13.083-2.317,19.671c-0.193,2.904,4.258,2.797,5.06,0.452&#10;&#9;&#9;&#9;&#9;c2.302-6.727,2.613-13.784,2.805-20.836C1012.67,645.248,1007.302,646.444,1007.023,649.606L1007.023,649.606z" style="fill: rgb(255, 255, 255);"/>
		</g>
		<g>
			<path fill="#062D47" d="M974.006,730.714c13.691-1.587,27.333-3.649,41.028-5.18c2.828-0.316,1.431-3.806-0.952-3.734&#10;&#9;&#9;&#9;&#9;c-13.678,0.41-27.305,1.535-40.741,4.322C970.558,726.698,971.066,731.055,974.006,730.714L974.006,730.714z" style="fill: rgb(255, 255, 255);"/>
		</g>
		<g>
			<path fill="#062D47" d="M980.056,719.365c14.756,1.177,30.408,0.621,44.764-3.274c2.548-0.691,0.865-3.72-1.263-3.517&#10;&#9;&#9;&#9;&#9;c-14.661,1.4-29.041,3.307-43.805,3.831C978.144,716.463,978.659,719.254,980.056,719.365L980.056,719.365z" style="fill: rgb(255, 255, 255);"/>
		</g>
		<g>
			<path fill="#062D47" d="M992.814,716.52c11.903-1.111,24.217-1.907,35.825-4.904c2.041-0.527,0.688-3.474-1.044-3.362&#10;&#9;&#9;&#9;&#9;c-12.04,0.774-24.021,3.286-36.034,4.506C988.728,713.047,990.331,716.752,992.814,716.52L992.814,716.52z" style="fill: rgb(255, 255, 255);"/>
		</g>
		<g>
			<path fill="#062D47" d="M995.805,707.468c15.077-0.186,31.212,1.03,46.086-1.571c2.067-0.361,1.239-3.244-0.451-3.519&#10;&#9;&#9;&#9;&#9;c-14.504-2.368-30.994,0.245-45.634,0.873C992.788,703.38,992.746,707.506,995.805,707.468L995.805,707.468z" style="fill: rgb(255, 255, 255);"/>
		</g>
		<g>
			<path fill="#062D47" d="M944.907,747.404c11.793,1.05,24.15-0.61,35.927-1.593c11.796-0.985,23.725-1.866,35.376-4.008&#10;&#9;&#9;&#9;&#9;c2.125-0.39,0.999-3.346-0.836-3.249c-13.02,0.683-26.02,2.435-39.011,3.562c-10.387,0.902-21.371,0.681-31.538,3.032&#10;&#9;&#9;&#9;&#9;C943.794,745.388,943.795,747.306,944.907,747.404L944.907,747.404z" style="fill: rgb(255, 255, 255);"/>
		</g>
		<g>
			<path fill="#062D47" d="M937.557,750.822c-1.929,0.464-3.859,0.924-5.79,1.38c-2.094,0.497-1.113,3.29,0.597,3.555&#10;&#9;&#9;&#9;&#9;c10.578,1.639,21.6-0.148,32.189-1.017c12.954-1.063,26.375-1.285,39.149-3.682c2.58-0.484,1.408-3.759-0.797-3.824&#10;&#9;&#9;&#9;&#9;c-23.188-0.684-47.01,7.705-70.116,4.928c0.199,1.185,0.398,2.37,0.597,3.555c1.909-0.463,3.818-0.922,5.729-1.378&#10;&#9;&#9;&#9;&#9;C941.66,753.73,939.782,750.29,937.557,750.822L937.557,750.822z" style="fill: rgb(255, 255, 255);"/>
		</g>
		<g>
			<path fill="#062D47" d="M908.577,762.124c-0.022,0.3-0.045,0.599-0.067,0.899c-0.062,0.822,0.524,1.415,1.143,1.831&#10;&#9;&#9;&#9;&#9;c3.685,2.476,8.976,0.666,13.035,0.281c8.23-0.782,16.46-1.57,24.689-2.364c16.303-1.572,33.121-2.216,49.206-5.32&#10;&#9;&#9;&#9;&#9;c2.466-0.476,0.717-3.594-1.159-3.599c-13.023-0.029-26.299,2.15-39.242,3.505c-4.14,0.434-42.724,3.021-42.851,4.883&#10;&#9;&#9;&#9;&#9;C913.516,759.517,908.782,759.4,908.577,762.124L908.577,762.124z" style="fill: rgb(255, 255, 255);"/>
		</g>
		<g>
			<path fill="#062D47" d="M907.247,765.795c-3.112,0.541-6.102,1.174-9.161,1.953c-2.554,0.65-1.18,4.116,1.139,3.865&#10;&#9;&#9;&#9;&#9;c24.604-2.676,50.529-3.936,74.627-9.667c2.23-0.531,1.971-3.738-0.409-3.738c-12.474,0.003-25.18,2.576-37.536,4.216&#10;&#9;&#9;&#9;&#9;c-12.43,1.649-24.854,3.344-37.253,5.215c0.38,1.288,0.759,2.576,1.139,3.864c2.662-0.715,5.271-1.292,7.989-1.743&#10;&#9;&#9;&#9;&#9;C910.654,769.285,909.979,765.32,907.247,765.795L907.247,765.795z" style="fill: rgb(255, 255, 255);"/>
		</g>
		<g>
			<path fill="#062D47" d="M904.654,765.79c-5.238,0.58-10.473,1.188-15.717,1.711c-2.833,0.283-2.437,3.951,0.307,3.905&#10;&#9;&#9;&#9;&#9;c29.793-0.503,61.193-0.031,90.602-5.146c2.139-0.372,1.033-3.198-0.749-3.233c-14.964-0.291-30.091,1.598-45.029,2.458&#10;&#9;&#9;&#9;&#9;c-15.038,0.866-30.079,1.446-45.13,2.015c0.102,1.302,0.205,2.603,0.307,3.905c5.417-0.667,10.841-1.273,16.264-1.896&#10;&#9;&#9;&#9;&#9;C908.239,769.197,907.095,765.52,904.654,765.79L904.654,765.79z" style="fill: rgb(255, 255, 255);"/>
		</g>
		<g>
			<path fill="#062D47" d="M814.987,779.305c0.06,0,0.06-0.073,0-0.073C814.927,779.232,814.927,779.305,814.987,779.305&#10;&#9;&#9;&#9;&#9;L814.987,779.305z" style="fill: rgb(255, 255, 255);"/>
		</g>
		<g>
			<path fill="#062D47" d="M840.197,785.647c36.301-0.825,72.62-2.423,108.866-4.547c2.786-0.163,1.532-3.754-0.854-3.72&#10;&#9;&#9;&#9;&#9;c-35.878,0.508-71.816,1.729-107.645,3.681C837.477,781.229,836.836,785.724,840.197,785.647L840.197,785.647z" style="fill: rgb(255, 255, 255);"/>
		</g>
		<g>
			<path fill="#062D47" d="M808.777,784.496c32.106-3.681,62.717,6.378,94.617,6.353c1.941-0.002,1.504-2.892-0.181-3.056&#10;&#9;&#9;&#9;&#9;c-31.36-3.054-63.895-11.331-95.415-6.33C805.947,781.757,807.099,784.689,808.777,784.496L808.777,784.496z" style="fill: rgb(255, 255, 255);"/>
		</g>
		<g>
			<path fill="#062D47" d="M793.82,793.819c0.06,0,0.06-0.073,0-0.073C793.761,793.746,793.76,793.819,793.82,793.819&#10;&#9;&#9;&#9;&#9;L793.82,793.819z" style="fill: rgb(255, 255, 255);"/>
		</g>
		<g>
			<path fill="#062D47" d="M829.044,793.189c14.551-0.835,29.149-0.636,43.684-1.473c2.109-0.121,1.15-3.089-0.58-3.193&#10;&#9;&#9;&#9;&#9;c-14.361-0.861-29.048,0.256-43.397,1.079C826.172,789.751,826.719,793.322,829.044,793.189L829.044,793.189z" style="fill: rgb(255, 255, 255);"/>
		</g>
		<g>
			<path fill="#062D47" d="M803.501,795.69c17.309,1.259,35.974,0.951,53.311,0.078c1.638-0.083,1.31-2.732-0.195-2.808&#10;&#9;&#9;&#9;&#9;c-17.147-0.869-36.176-0.193-53.122,2.703C803.473,795.666,803.483,795.689,803.501,795.69L803.501,795.69z" style="fill: rgb(255, 255, 255);"/>
		</g>
		<g>
			<path fill="#062D47" d="M778.786,792.727c-2.756,0.816-5.512,1.632-8.269,2.444c-2.584,0.761-1.422,3.881,0.683,4.248&#10;&#9;&#9;&#9;&#9;c22.081,3.854,45.985,2.617,68.259,1.069c2.299-0.16,2.136-3.34-0.045-3.615c-22.448-2.83-45.018,2.277-67.575-1.915&#10;&#9;&#9;&#9;&#9;c0.012,1.478,0.023,2.955,0.034,4.433c2.637-0.738,5.274-1.478,7.912-2.218C782.908,796.297,781.915,791.801,778.786,792.727&#10;&#9;&#9;&#9;&#9;L778.786,792.727z" style="fill: rgb(255, 255, 255);"/>
		</g>
		<g>
			<path fill="#062D47" d="M747.128,808.878c17.858-1.633,36.005,0.374,53.823-1.633c2.462-0.277,1.774-3.55-0.409-3.738&#10;&#9;&#9;&#9;&#9;c-17.613-1.511-35.497,1.755-53.158,0.739C744.153,804.06,743.839,809.179,747.128,808.878L747.128,808.878z" style="fill: rgb(255, 255, 255);"/>
		</g>
		<g>
			<path fill="#062D47" d="M733.345,804.454c24.026,1.302,49.047,4.141,73.062,2.269c1.811-0.141,0.685-2.861-0.618-3.06&#10;&#9;&#9;&#9;&#9;c-23.552-3.603-48.677-2.426-72.476-2.698C730.813,800.936,731.073,804.33,733.345,804.454L733.345,804.454z" style="fill: rgb(255, 255, 255);"/>
		</g>
		<g>
			<path fill="#062D47" d="M730.352,794.863c-3.672,0.305-6.013,0.992-8.964,3.145c-0.781,0.57-1.169,1.6-0.469,2.453&#10;&#9;&#9;&#9;&#9;c3.692,4.492,9.026,4.17,14.564,4.752c9.788,1.029,19.608,1.732,29.442,2.133c16.819,0.686,34.447,1.246,51.153-1.146&#10;&#9;&#9;&#9;&#9;c2.167-0.31,1.445-3.464-0.505-3.491c-15.149-0.212-30.297,1.136-45.481,0.826c-7.276-0.148-14.546-0.483-21.807-0.978&#10;&#9;&#9;&#9;&#9;c-3.582-0.244-7.161-0.53-10.737-0.856c-1.789-0.159-3.577-0.331-5.364-0.517c-3.995,0.538-4.64-0.176-1.935-2.142&#10;&#9;&#9;&#9;&#9;C733.314,799.179,733.316,794.617,730.352,794.863L730.352,794.863z" style="fill: rgb(255, 255, 255);"/>
		</g>
		<g>
			<path fill="#062D47" d="M786.155,795.495c-0.065-1.215,61.248-1.005,66.423-1.227c1.935-0.083,1.51-2.854-0.181-3.056&#10;&#9;&#9;&#9;&#9;c-16.454-1.966-32.945-1.813-49.497-1.51c-6.121,0.112-22.256-2.936-22.067,6.869&#10;&#9;&#9;&#9;&#9;C780.894,799.787,786.322,798.654,786.155,795.495L786.155,795.495z" style="fill: rgb(255, 255, 255);"/>
		</g>
		<g>
			<path fill="#062D47" d="M789.565,794.603c2.039-0.407,4.095-0.691,6.156-0.986c2.036-0.291,0.768-3.443-0.953-3.352&#10;&#9;&#9;&#9;&#9;c-1.915,0.102-3.813,0.252-5.734,0.218c-1.281-0.023-2.567,0.93-2.393,2.31C786.815,794.172,788.299,794.856,789.565,794.603&#10;&#9;&#9;&#9;&#9;L789.565,794.603z" style="fill: rgb(255, 255, 255);"/>
		</g>
		<g>
			<path fill="#062D47" d="M750.512,806.432c12.337-1.114,25.074-0.497,37.282-2.362c2.123-0.325,1.865-3.371-0.119-3.716&#10;&#9;&#9;&#9;&#9;c-11.944-2.079-25.648,0.393-37.591,1.731C746.971,802.434,747.383,806.715,750.512,806.432L750.512,806.432z" style="fill: rgb(255, 255, 255);"/>
		</g>
		<g>
			<path fill="#062D47" d="M712.251,804.27c17.114,1.379,34.166,2.689,51.207,4.852c17.388,2.208,34.689,6.209,52.108,7.849&#10;&#9;&#9;&#9;&#9;c2.407,0.227,2.053-2.877,0.209-3.501c-15.498-5.251-33.105-6.867-49.277-8.849c-17.985-2.205-36.241-3.701-54.365-3.874&#10;&#9;&#9;&#9;&#9;C709.591,800.722,709.974,804.086,712.251,804.27L712.251,804.27z" style="fill: rgb(255, 255, 255);"/>
		</g>
		<g>
			<path fill="#062D47" d="M685.006,810.522c34.542-5.392,68.887,6.576,103.362,7.595c2.78,0.082,2.669-3.594,0.043-3.78&#10;&#9;&#9;&#9;&#9;c-35.219-2.501-69.115-14.088-104.68-7.881C680.649,806.993,682.159,810.967,685.006,810.522L685.006,810.522z" style="fill: rgb(255, 255, 255);"/>
		</g>
		<g>
			<path fill="#062D47" d="M693.431,805.309c0.06,0,0.06-0.073,0-0.073C693.371,805.237,693.371,805.309,693.431,805.309&#10;&#9;&#9;&#9;&#9;L693.431,805.309z" style="fill: rgb(255, 255, 255);"/>
		</g>
		<g>
			<path fill="#062D47" d="M696.282,809.337c24.04,3.84,48.212-1.28,72.106,4.568c2.664,0.652,3.665-2.456,1.172-3.548&#10;&#9;&#9;&#9;&#9;c-22.476-9.842-48.368-2.384-72.023-5.717C694.451,804.204,692.887,808.795,696.282,809.337L696.282,809.337z" style="fill: rgb(255, 255, 255);"/>
		</g>
		<g>
			<path fill="#062D47" d="M719.519,816.715c30.707-6.491,61.3-13.432,91.554-21.807c2.309-0.639,0.702-4.052-1.356-3.607&#10;&#9;&#9;&#9;&#9;c-30.588,6.619-60.986,14.086-91.35,21.66C715.639,813.641,717.034,817.24,719.519,816.715L719.519,816.715z" style="fill: rgb(255, 255, 255);"/>
		</g>
		<g>
			<path fill="#062D47" d="M752.307,818.184c18.991-4.734,38.072-9.11,57.19-13.3c19.475-4.268,39.632-7.286,58.679-13.2&#10;&#9;&#9;&#9;&#9;c1.844-0.572,1.029-3.446-0.775-3.323c-19.54,1.336-39.199,6.733-58.23,11.176c-19.577,4.57-39.026,9.627-58.428,14.884&#10;&#9;&#9;&#9;&#9;C747.914,815.188,749.782,818.814,752.307,818.184L752.307,818.184z" style="fill: rgb(255, 255, 255);"/>
		</g>
		<g>
			<path fill="#062D47" d="M782.123,823.07c21.018-6.782,42.564-12.196,63.953-17.668c24.083-6.162,48.92-10.58,72.655-17.947&#10;&#9;&#9;&#9;&#9;c2.416-0.75,0.537-3.837-1.456-3.607c-21.418,2.469-42.757,8.81-63.559,14.272c-24.679,6.48-48.974,14.117-73.473,21.211&#10;&#9;&#9;&#9;&#9;C777.399,820.154,779.549,823.901,782.123,823.07L782.123,823.07z" style="fill: rgb(255, 255, 255);"/>
		</g>
		<g>
			<path fill="#062D47" d="M810.739,820.79c49.342-13.751,99.675-22.048,149.498-33.525c2.595-0.598,0.766-3.764-1.361-3.52&#10;&#9;&#9;&#9;&#9;c-50.402,5.792-100.526,20.436-149.401,33.528C807.016,817.932,808.585,821.39,810.739,820.79L810.739,820.79z" style="fill: rgb(255, 255, 255);"/>
		</g>
		<g>
			<path fill="#062D47" d="M880.865,816.51c28.339-6.8,57.439-12.318,85.375-20.575c1.933-0.571,0.828-3.568-0.953-3.352&#10;&#9;&#9;&#9;&#9;c-28.674,3.487-57.771,11.862-85.478,19.875C876.914,813.295,878.023,817.192,880.865,816.51L880.865,816.51z" style="fill: rgb(255, 255, 255);"/>
		</g>
		<g>
			<path fill="#062D47" d="M1044.12,749.366c13.769-2.287,28.24-3.516,41.649-7.467c1.204-0.355,0.607-2.561-0.592-2.484&#10;&#9;&#9;&#9;&#9;c-14.113,0.915-28.229,4.292-42.161,6.665C1040.857,746.449,1042.21,749.684,1044.12,749.366L1044.12,749.366z" style="fill: rgb(255, 255, 255);"/>
		</g>
		<g>
			<path fill="#062D47" d="M1040.456,754.81c14.258-0.94,28.655-1.343,42.841-3.096c1.623-0.2,0.999-3.031-0.459-3.014&#10;&#9;&#9;&#9;&#9;c-14.467,0.165-28.971,1.795-43.396,2.835C1037.295,751.689,1038.567,754.934,1040.456,754.81L1040.456,754.81z" style="fill: rgb(255, 255, 255);"/>
		</g>
		<g>
			<path fill="#062D47" d="M1057.19,761.263c6.365-0.721,12.735-1.409,19.115-1.986c5.43-0.491,11.12-0.364,16.336-2.025&#10;&#9;&#9;&#9;&#9;c0.855-0.272,1.238-2.022,0.08-2.144c-11.72-1.238-24.555,1.491-36.195,2.941C1054.468,758.306,1055.369,761.47,1057.19,761.263&#10;&#9;&#9;&#9;&#9;L1057.19,761.263z" style="fill: rgb(255, 255, 255);"/>
		</g>
		<g>
			<path fill="#062D47" d="M1037.254,773.466c6.129-1.932,12.559-3.37,18.863-4.588c2.402-0.464,1.248-3.738-0.885-3.48&#10;&#9;&#9;&#9;&#9;c-6.809,0.824-13.192,2.173-19.812,4.014C1032.343,770.267,1034.334,774.386,1037.254,773.466L1037.254,773.466z" style="fill: rgb(255, 255, 255);"/>
		</g>
		<g>
			<path fill="#062D47" d="M1065.297,729.549c5.96,16.283-6.026,29.331-15.704,40.674c-1.021,1.197,0.74,3.391,2.105,2.486&#10;&#9;&#9;&#9;&#9;c13.632-9.038,24.82-28.218,17.981-44.422C1068.798,726.199,1064.439,727.205,1065.297,729.549L1065.297,729.549z" style="fill: rgb(255, 255, 255);"/>
		</g>
		<g>
			<path fill="#062D47" d="M1083.817,737.844c-1.924,4.799-4.1,9.454-6.722,13.915c-2.639,4.489-6.151,8.4-8.735,12.885&#10;&#9;&#9;&#9;&#9;c-1.168,2.029,2.295,3.24,3.621,2.022c7.446-6.844,12.525-17.659,15.961-27.038&#10;&#9;&#9;&#9;&#9;C1088.854,737.135,1084.764,735.482,1083.817,737.844L1083.817,737.844z" style="fill: rgb(255, 255, 255);"/>
		</g>
		<g>
			<path fill="#062D47" d="M83.668,764.186c4.409-11.755,13.83-22.117,21.675-31.818c7.481-9.251,15.306-18.223,23.437-26.909&#10;&#9;&#9;&#9;&#9;c16.453-17.574,34.249-33.889,53.103-48.855c19.44-15.431,40.113-29.399,61.693-41.661&#10;&#9;&#9;&#9;&#9;c21.724-12.344,44.557-21.657,67.031-32.378c1.826-0.871-0.245-3.617-1.864-3.123c-24.309,7.423-47.857,19.893-69.774,32.586&#10;&#9;&#9;&#9;&#9;c-20.802,12.047-40.69,25.59-59.544,40.501c-20.237,16.004-39.209,33.609-56.692,52.584c-8.445,9.166-16.51,18.671-24.226,28.457&#10;&#9;&#9;&#9;&#9;c-7.021,8.904-15.473,18.169-18.858,29.178C78.939,765.057,82.813,766.464,83.668,764.186L83.668,764.186z" style="fill: rgb(255, 255, 255);"/>
		</g>
		<g>
			<path fill="#062D47" d="M99.365,763.279c39.306-39.981,80.876-76.919,127.466-108.311&#10;&#9;&#9;&#9;&#9;c45.893-30.921,94.862-55.176,145.362-77.501c3.103-1.372,2.156-6.23-1.36-4.957c-52.365,18.961-101.954,46.43-147.762,77.96&#10;&#9;&#9;&#9;&#9;c-46.042,31.692-89.984,68.321-127.083,110.265C94.471,762.451,97.898,764.77,99.365,763.279L99.365,763.279z" style="fill: rgb(255, 255, 255);"/>
		</g>
		<g>
			<path fill="#062D47" d="M173.041,715.663c29.761-23.377,61.097-44.383,93.881-63.267c14.695-8.464,29.688-16.39,44.904-23.875&#10;&#9;&#9;&#9;&#9;c16.947-8.337,34.631-15.233,51.35-24.007c2.598-1.363,0.169-4.477-2.176-3.808c-17.41,4.97-34.036,13.675-50.209,21.681&#10;&#9;&#9;&#9;&#9;c-16.854,8.343-33.383,17.365-49.579,26.921c-32.039,18.903-62.551,40.434-91.59,63.656&#10;&#9;&#9;&#9;&#9;C167.475,714.683,171.115,717.176,173.041,715.663L173.041,715.663z" style="fill: rgb(255, 255, 255);"/>
		</g>
		<g>
			<path fill="#062D47" d="M188.836,725.421c27.225-18.601,54.679-36.923,82.952-53.907c14.814-8.899,29.885-17.388,45.28-25.242&#10;&#9;&#9;&#9;&#9;c15.089-7.698,31.602-13.506,46.24-21.905c2.129-1.221,0.473-4.429-1.75-3.92c-13.356,3.059-26.762,10.811-38.985,16.979&#10;&#9;&#9;&#9;&#9;c-16.072,8.111-31.791,16.948-47.205,26.245c-30.515,18.404-59.872,38.565-89.436,58.438&#10;&#9;&#9;&#9;&#9;C183.074,724.031,186.26,727.182,188.836,725.421L188.836,725.421z" style="fill: rgb(255, 255, 255);"/>
		</g>
		<g>
			<path fill="#062D47" d="M263.656,698.522c45.861-28.729,94.986-50.641,144.868-71.281c2.139-0.885,0.382-3.94-1.571-3.295&#10;&#9;&#9;&#9;&#9;c-51.426,16.989-99.575,42.902-145.361,71.584C259.779,696.666,261.962,699.583,263.656,698.522L263.656,698.522z" style="fill: rgb(255, 255, 255);"/>
		</g>
		<g>
			<path fill="#062D47" d="M310.322,694.652c39.182-22.038,79.549-41.137,120.663-59.246c2.65-1.167,0.771-5.271-1.881-4.201&#10;&#9;&#9;&#9;&#9;c-41.677,16.807-82.047,37.602-121.092,59.78C305.337,692.504,307.876,696.028,310.322,694.652L310.322,694.652z" style="fill: rgb(255, 255, 255);"/>
		</g>
		<g>
			<path fill="#062D47" d="M341.448,691.501c34.585-12.559,69.375-25.178,102.975-40.198c2.425-1.084,0.458-4.331-1.758-3.505&#10;&#9;&#9;&#9;&#9;c-34.446,12.848-68.43,26.918-102.937,39.639C336.725,688.545,338.596,692.536,341.448,691.501L341.448,691.501z" style="fill: rgb(255, 255, 255);"/>
		</g>
		<g>
			<path fill="#062D47" d="M196.83,637.919c38.317,3.286,76.777,0.28,115.132,2.343c36.675,1.973,72.85,8.885,109.175,13.882&#10;&#9;&#9;&#9;&#9;c2.449,0.337,2.325-2.91,0.212-3.375c-35.841-7.873-72.145-13.856-108.847-15.577c-38.515-1.807-77.048,2.046-115.54-0.688&#10;&#9;&#9;&#9;&#9;C194.507,634.33,194.622,637.73,196.83,637.919L196.83,637.919z" style="fill: rgb(255, 255, 255);"/>
		</g>
		<g>
			<path fill="#062D47" d="M162.837,659.317c42.686-2.585,85.553-2.718,128.302-2.288c39.374,0.396,78.85,3.857,118.199,3.384&#10;&#9;&#9;&#9;&#9;c2.272-0.027,1.745-3.029-0.188-3.294c-40.932-5.622-83.416-4.932-124.671-5.018c-40.81-0.086-81.545,1.748-122.303,3.532&#10;&#9;&#9;&#9;&#9;C159.484,655.75,160.427,659.463,162.837,659.317L162.837,659.317z" style="fill: rgb(255, 255, 255);"/>
		</g>
		<g>
			<path fill="#062D47" d="M171.07,675.982c35.989-0.422,71.969-0.103,107.954,0.512c36.147,0.618,72.781,4.017,108.889,2.952&#10;&#9;&#9;&#9;&#9;c2.295-0.068,1.295-3.262-0.505-3.491c-17.429-2.222-35.514-1.787-53.071-2.304c-17.686-0.521-35.376-0.921-53.068-1.201&#10;&#9;&#9;&#9;&#9;c-36.826-0.583-73.663-0.417-110.49-0.055C168.181,672.421,168.746,676.009,171.07,675.982L171.07,675.982z" style="fill: rgb(255, 255, 255);"/>
		</g>
		<g>
			<path fill="#062D47" d="M173.946,703.106c0.06,0,0.06-0.073,0-0.073S173.886,703.106,173.946,703.106L173.946,703.106z" style="fill: rgb(255, 255, 255);"/>
		</g>
		<g>
			<path fill="#062D47" d="M225.401,704.341c21.075-0.076,42.15-0.153,63.225-0.229c20.957-0.076,42.478,1.228,63.354-0.553&#10;&#9;&#9;&#9;&#9;c2.707-0.231,1.821-3.441-0.474-3.64c-20.101-1.744-40.941-0.164-61.125-0.085c-21.695,0.085-43.39,0.169-65.084,0.254&#10;&#9;&#9;&#9;&#9;C222.23,700.1,222.339,704.352,225.401,704.341L225.401,704.341z" style="fill: rgb(255, 255, 255);"/>
		</g>
		<g>
			<path fill="#062D47" d="M206.603,725.482c0.06,0,0.06-0.073,0-0.073C206.543,725.409,206.543,725.482,206.603,725.482&#10;&#9;&#9;&#9;&#9;L206.603,725.482z" style="fill: rgb(255, 255, 255);"/>
		</g>
		<g>
			<path fill="#062D47" d="M270.529,727.867c27.915-1.251,55.93-0.925,83.835,0.455c2.656,0.131,1.898-3.411-0.382-3.614&#10;&#9;&#9;&#9;&#9;c-27.68-2.466-55.326-2.693-83.085-1.427C267.782,723.423,267.2,728.016,270.529,727.867L270.529,727.867z" style="fill: rgb(255, 255, 255);"/>
		</g>
		<g>
			<path fill="#062D47" d="M316.654,751.989c21.512-5.563,43.359-10.196,65.248-13.975c2.477-0.428,1.076-3.794-1.072-3.504&#10;&#9;&#9;&#9;&#9;c-22.082,2.99-43.712,7.39-65.293,13.021C312.367,748.358,313.471,752.812,316.654,751.989L316.654,751.989z" style="fill: rgb(255, 255, 255);"/>
		</g>
		<g>
			<path fill="#062D47" d="M370.222,750.522c9.739-5.736,20.468-9.637,30.183-15.311c1.431-0.835-0.022-3.362-1.491-2.896&#10;&#9;&#9;&#9;&#9;c-10.778,3.419-20.752,9.752-30.434,15.455C366.931,748.682,368.667,751.438,370.222,750.522L370.222,750.522z" style="fill: rgb(255, 255, 255);"/>
		</g>
		<g>
			<path fill="#062D47" d="M343.788,709.48c2.016,8.902,4.005,17.81,6.041,26.707c1.603,7.004,2.751,14.43,7.276,20.17&#10;&#9;&#9;&#9;&#9;c1.087,1.38,4.127,0.767,3.602-1.297c-4.023-15.815-8.301-31.539-11.924-47.507C348.1,704.543,343.104,706.461,343.788,709.48&#10;&#9;&#9;&#9;&#9;L343.788,709.48z" style="fill: rgb(255, 255, 255);"/>
		</g>
		<g>
			<path fill="#062D47" d="M365.77,713.35c-1.364,7.405-2.482,17.567,2.202,24.01c0.616,0.847,2.014,0.722,2.252-0.366&#10;&#9;&#9;&#9;&#9;c0.752-3.435-0.113-6.858-0.287-10.341c-0.222-4.454,0.118-8.822,0.925-13.204C371.413,710.452,366.294,710.502,365.77,713.35&#10;&#9;&#9;&#9;&#9;L365.77,713.35z" style="fill: rgb(255, 255, 255);"/>
		</g>
		<g>
			<path fill="#062D47" d="M380.313,718.671c-1.758,9.109-2.489,20.943,3.353,28.741c0.626,0.836,2.552,1.291,2.593-0.279&#10;&#9;&#9;&#9;&#9;c0.136-5.203-1.551-10.127-1.855-15.321c-0.253-4.327,0.124-8.546,0.915-12.8C385.871,716.045,380.854,715.868,380.313,718.671&#10;&#9;&#9;&#9;&#9;L380.313,718.671z" style="fill: rgb(255, 255, 255);"/>
		</g>
		<g>
			<path fill="#062D47" d="M390.992,729.159c-0.934,4.551-1.253,10.607,1.337,14.677c0.63,0.989,2.144,0.758,2.231-0.482&#10;&#9;&#9;&#9;&#9;c0.149-2.124-0.671-4.204-0.793-6.345c-0.134-2.345,0.131-4.606,0.632-6.891C394.824,728.179,391.443,726.961,390.992,729.159&#10;&#9;&#9;&#9;&#9;L390.992,729.159z" style="fill: rgb(255, 255, 255);"/>
		</g>
		<g>
			<path fill="#062D47" d="M508.124,664.061c16.179-10.215,32.794-19.724,49.907-28.291c18.986-9.504,38.782-16.721,58.071-25.458&#10;&#9;&#9;&#9;&#9;c1.78-0.806,0.418-3.588-1.328-3.06c-38.169,11.531-75.234,32.264-108.704,53.571&#10;&#9;&#9;&#9;&#9;C504.029,662.122,506.289,665.22,508.124,664.061L508.124,664.061z" style="fill: rgb(255, 255, 255);"/>
		</g>
		<g>
			<path fill="#062D47" d="M529.197,675.343c25.561-17.221,52.493-29.228,80.128-42.401c1.994-0.951,0.133-3.937-1.708-3.368&#10;&#9;&#9;&#9;&#9;c-28.675,8.87-56.428,25.867-80.952,42.809C524.951,673.567,527.601,676.418,529.197,675.343L529.197,675.343z" style="fill: rgb(255, 255, 255);"/>
		</g>
		<g>
			<path fill="#062D47" d="M551.831,669.009c28.981-12.546,59.042-21.415,88.467-32.633c1.384-0.527,0.503-3.163-0.899-2.86&#10;&#9;&#9;&#9;&#9;c-30.828,6.672-61.113,19.398-89.986,31.851C546.559,666.597,549.27,670.117,551.831,669.009L551.831,669.009z" style="fill: rgb(255, 255, 255);"/>
		</g>
		<g>
			<path fill="#062D47" d="M583.328,664.678c10.503-0.665,21.251-6.186,31.279-9.486c7.763-2.555,15.698-4.691,23.235-7.868&#10;&#9;&#9;&#9;&#9;c1.455-0.614,0.276-3.189-1.147-2.889c-9.959,2.099-19.625,5.716-29.245,8.996c-7.916,2.699-17.885,4.656-24.347,10.081&#10;&#9;&#9;&#9;&#9;C582.746,663.812,582.676,664.719,583.328,664.678L583.328,664.678z" style="fill: rgb(255, 255, 255);"/>
		</g>
		<g>
			<path fill="#062D47" d="M589.774,673.866c19.047-7.054,38.651-13.634,57.056-22.239c1.803-0.843,0.334-3.604-1.418-3.061&#10;&#9;&#9;&#9;&#9;c-19.398,6.008-38.359,14.211-57.197,21.782C585.802,671.318,587.599,674.672,589.774,673.866L589.774,673.866z" style="fill: rgb(255, 255, 255);"/>
		</g>
		<g>
			<path fill="#062D47" d="M565.918,627.07c10.231,3.909,20.029,8.618,29.331,14.417c10.252,6.392,18.55,15.14,28.462,21.764&#10;&#9;&#9;&#9;&#9;c1.662,1.111,4.948-0.138,3.302-2.384c-6.503-8.874-17.016-15.664-26.205-21.549c-10.284-6.587-21.263-11.894-32.697-16.158&#10;&#9;&#9;&#9;&#9;C565.43,622.159,562.935,625.931,565.918,627.07L565.918,627.07z" style="fill: rgb(255, 255, 255);"/>
		</g>
		<g>
			<path fill="#062D47" d="M524.211,626.793c32.508,6.994,62.153,19.693,91.723,34.625c2.03,1.025,3.277-1.487,1.457-2.693&#10;&#9;&#9;&#9;&#9;c-27.358-18.131-59.418-29.316-91.328-36.181C523.188,621.926,521.009,626.105,524.211,626.793L524.211,626.793z" style="fill: rgb(255, 255, 255);"/>
		</g>
		<g>
			<path fill="#062D47" d="M504.184,636.121c14.581,2.703,29.043,6.164,43.054,11.063c12.48,4.363,24.108,10.655,36.475,15.172&#10;&#9;&#9;&#9;&#9;c1.797,0.656,3.137-1.833,1.583-2.962c-10.831-7.868-24.779-12.434-37.387-16.581c-14.331-4.714-28.948-8.063-43.913-9.986&#10;&#9;&#9;&#9;&#9;C501.718,632.534,502.323,635.776,504.184,636.121L504.184,636.121z" style="fill: rgb(255, 255, 255);"/>
		</g>
		<g>
			<path fill="#062D47" d="M339.364,511.443c20.383-17.941,39.786-36.215,62.37-51.533c21.472-14.564,44.204-26.962,67.633-38.056&#10;&#9;&#9;&#9;&#9;c2.099-0.994,0.268-4.091-1.666-3.289c-24.631,10.21-47.971,23.098-69.852,38.337c-21.521,14.988-43.797,31.939-60.76,52.108&#10;&#9;&#9;&#9;&#9;C336.068,510.224,338.102,512.554,339.364,511.443L339.364,511.443z" style="fill: rgb(255, 255, 255);"/>
		</g>
		<g>
			<path fill="#062D47" d="M370.247,516.499c15.202-13.996,30.468-27.668,47.067-40.015c16.682-12.409,34.977-22.161,51.902-34.094&#10;&#9;&#9;&#9;&#9;c1.839-1.296-0.929-3.643-2.531-2.96c-18.768,8.001-36.273,21.252-52.459,33.51c-16.467,12.47-32.39,26.055-46.61,41.055&#10;&#9;&#9;&#9;&#9;C366.214,515.475,368.763,517.865,370.247,516.499L370.247,516.499z" style="fill: rgb(255, 255, 255);"/>
		</g>
		<g>
			<path fill="#062D47" d="M406.135,503.633c8.973-7.668,18.324-14.84,28.151-21.383c10.852-7.226,22.652-12.933,33.419-20.226&#10;&#9;&#9;&#9;&#9;c1.4-0.948-0.18-3.444-1.668-2.883c-23.33,8.779-44.661,25.777-63.416,41.856C400.521,502.798,404.243,505.249,406.135,503.633&#10;&#9;&#9;&#9;&#9;L406.135,503.633z" style="fill: rgb(255, 255, 255);"/>
		</g>
		<g>
			<path fill="#062D47" d="M421.971,505.591c11.863-8.265,24.755-16.004,35.741-25.403c2.017-1.726-0.769-4.194-2.743-3.04&#10;&#9;&#9;&#9;&#9;c-12.452,7.274-23.977,16.883-35.643,25.366C417.242,504.029,420.077,506.91,421.971,505.591L421.971,505.591z" style="fill: rgb(255, 255, 255);"/>
		</g>
		<g>
			<path fill="#062D47" d="M442.684,507.526c6.29-5.221,12.695-10.293,19.332-15.068c5.752-4.138,12.569-7.667,17.417-12.866&#10;&#9;&#9;&#9;&#9;c0.648-0.695,0.173-2.807-1.042-2.354c-14.223,5.308-27.224,17.231-38.589,27.06C437.6,506.203,440.661,509.205,442.684,507.526&#10;&#9;&#9;&#9;&#9;L442.684,507.526z" style="fill: rgb(255, 255, 255);"/>
		</g>
		<g>
			<path fill="#062D47" d="M455.185,509.962c10.163-9.318,21.429-16.751,32.414-24.985c1.714-1.284-0.271-3.898-2.064-2.992&#10;&#9;&#9;&#9;&#9;c-12.502,6.324-23.657,15.398-33.949,24.821C449.096,509.086,452.913,512.045,455.185,509.962L455.185,509.962z" style="fill: rgb(255, 255, 255);"/>
		</g>
		<g>
			<path fill="#062D47" d="M390.183,447.302c18.73,7.789,36.535,17.596,52.884,29.627c7.662,5.639,15.025,11.69,22.025,18.132&#10;&#9;&#9;&#9;&#9;c6.497,5.979,12.104,13.319,19.052,18.706c1.809,1.403,4.621-0.296,3.271-2.488c-9.955-16.158-29.086-29.812-44.468-40.523&#10;&#9;&#9;&#9;&#9;c-15.767-10.979-32.702-20.041-50.491-27.277C389.823,442.409,387.257,446.085,390.183,447.302L390.183,447.302z" style="fill: rgb(255, 255, 255);"/>
		</g>
		<g>
			<path fill="#062D47" d="M397.861,456.556c10.052,7.524,19.989,15.056,29.113,23.721c10.214,9.699,18.324,20.99,27.87,31.242&#10;&#9;&#9;&#9;&#9;c1.571,1.687,4.532-0.16,3.331-2.28c-12.715-22.441-36.366-42.4-58.368-55.308C397.782,452.744,395.876,455.071,397.861,456.556&#10;&#9;&#9;&#9;&#9;L397.861,456.556z" style="fill: rgb(255, 255, 255);"/>
		</g>
		<g>
			<path fill="#062D47" d="M629.922,538.411c31.312-12.298,63.083-23.41,94.385-35.697c2.058-0.808,0.633-3.908-1.288-3.297&#10;&#9;&#9;&#9;&#9;c-32.309,10.283-64.054,23.048-95.446,35.823C625.272,536.176,627.89,539.209,629.922,538.411L629.922,538.411z" style="fill: rgb(255, 255, 255);"/>
		</g>
		<g>
			<path fill="#062D47" d="M700.116,535.669c22.569-12.042,45.994-18.63,70.034-26.632c2.485-0.827,0.309-3.852-1.658-3.599&#10;&#9;&#9;&#9;&#9;c-24.297,3.112-49.473,14.872-70.9,26.295C694.614,533.318,697.298,537.172,700.116,535.669L700.116,535.669z" style="fill: rgb(255, 255, 255);"/>
		</g>
		<g>
			<path fill="#062D47" d="M715.327,549.943c14.47-5.136,28.8-10.675,42.912-16.724c1.606-0.688,0.112-3.368-1.483-2.774&#10;&#9;&#9;&#9;&#9;c-14.31,5.333-28.5,11-42.659,16.725C712.546,547.798,713.765,550.497,715.327,549.943L715.327,549.943z" style="fill: rgb(255, 255, 255);"/>
		</g>
		<g>
			<path fill="#062D47" d="M740.419,552.465c9.859-2.034,20.078-4.525,29.106-9.089c2.161-1.093,0.484-4.209-1.658-3.599&#10;&#9;&#9;&#9;&#9;c-9.483,2.7-18.524,6.227-28.214,8.274C736.528,548.71,737.263,553.116,740.419,552.465L740.419,552.465z" style="fill: rgb(255, 255, 255);"/>
		</g>
		<g>
			<path fill="#062D47" d="M770.161,562.001c6.874-3.277,13.69-6.601,20.421-10.165c2.381-1.261,0.264-4.442-1.96-3.48&#10;&#9;&#9;&#9;&#9;c-6.941,3.001-13.83,6.03-20.682,9.231C764.767,559.069,767.003,563.507,770.161,562.001L770.161,562.001z" style="fill: rgb(255, 255, 255);"/>
		</g>
		<g>
			<path fill="#062D47" d="M782.177,570.948c7.815-2.005,15.847-4.379,22.898-8.377c2.117-1.2,0.038-4.004-1.957-3.255&#10;&#9;&#9;&#9;&#9;c-7.248,2.722-14.256,5.676-21.785,7.607C778.455,567.661,779.415,571.656,782.177,570.948L782.177,570.948z" style="fill: rgb(255, 255, 255);"/>
		</g>
		<g>
			<path fill="#062D47" d="M786.823,595.753c8.315,0.249,17.335-0.697,24.876-4.448c1.557-0.774-0.15-3.254-1.579-2.891&#10;&#9;&#9;&#9;&#9;c-7.978,2.026-15.554,3.635-23.831,3.373C783.352,591.694,784.1,595.671,786.823,595.753L786.823,595.753z" style="fill: rgb(255, 255, 255);"/>
		</g>
		<g>
			<path fill="#062D47" d="M807.343,628.401c14.852-5.834,30.428-10.007,45.143-16.062c2.459-1.012,0.14-3.954-1.863-3.581&#10;&#9;&#9;&#9;&#9;c-15.261,2.84-30.593,9.545-45.003,15.176C802.454,625.172,804.171,629.647,807.343,628.401L807.343,628.401z" style="fill: rgb(255, 255, 255);"/>
		</g>
		<g>
			<path fill="#062D47" d="M874.005,527.88c16.02,15.074,29.592,31.938,43.742,48.696c1.207,1.429,3.511,0.104,2.486-1.622&#10;&#9;&#9;&#9;&#9;c-11.246-18.943-26.955-35.258-42.94-50.274C875.264,522.773,871.749,525.757,874.005,527.88L874.005,527.88z" style="fill: rgb(255, 255, 255);"/>
		</g>
		<g>
			<path fill="#062D47" d="M906.728,529.881c3.181,7.542,8.481,13.917,13.415,20.369c5.891,7.705,10.331,15.84,15.259,24.122&#10;&#9;&#9;&#9;&#9;c0.718,1.207,3.782,1.665,3.484-0.419c-2.458-17.19-19.587-32.022-29.648-45.222&#10;&#9;&#9;&#9;&#9;C908.231,527.409,905.962,528.066,906.728,529.881L906.728,529.881z" style="fill: rgb(255, 255, 255);"/>
		</g>
		<g>
			<path fill="#062D47" d="M934.074,554.868c3.163,5.314,6.058,10.843,9.956,15.653c1.382,1.706,4.294,0.428,3.427-1.762&#10;&#9;&#9;&#9;&#9;c-2.233-5.639-5.738-10.801-8.801-16.028C937.196,550.24,932.518,552.253,934.074,554.868L934.074,554.868z" style="fill: rgb(255, 255, 255);"/>
		</g>
		<g>
			<path fill="#062D47" d="M953.111,571.74c3.107,4.841,6.116,9.847,11.415,12.473c0.908,0.45,1.639-0.355,1.685-1.2&#10;&#9;&#9;&#9;&#9;c0.14-2.573-1.693-5.014-3.131-6.997c-1.867-2.574-3.688-5.162-5.394-7.846C955.862,565.299,951.266,568.865,953.111,571.74&#10;&#9;&#9;&#9;&#9;L953.111,571.74z" style="fill: rgb(255, 255, 255);"/>
		</g>
		<g>
			<path fill="#062D47" d="M102.161,659.298c55.597-89.871,135.793-163.183,229.914-211.18&#10;&#9;&#9;&#9;&#9;c26.118-13.319,53.417-24.863,80.931-34.977c2.816-1.035,0.755-4.484-1.775-3.75c-100.649,29.215-191.8,94.617-259.465,173.795&#10;&#9;&#9;&#9;&#9;c-19.751,23.112-37.622,47.814-53.483,73.747C96.782,659.388,100.782,661.526,102.161,659.298L102.161,659.298z" style="fill: rgb(255, 255, 255);"/>
		</g>
		<g>
			<path fill="#062D47" d="M112.662,607.079c35.295-46.894,78.724-87.641,126.778-121.243&#10;&#9;&#9;&#9;&#9;c24.735-17.296,50.912-32.595,78.092-45.714c27.81-13.423,56.655-23.352,85.461-34.268c2.121-0.804,0.092-3.77-1.708-3.368&#10;&#9;&#9;&#9;&#9;c-57.076,12.761-112.449,42.921-160.271,75.817c-50.652,34.841-94.663,77.808-132.083,126.495&#10;&#9;&#9;&#9;&#9;C107.076,607.208,110.973,609.322,112.662,607.079L112.662,607.079z" style="fill: rgb(255, 255, 255);"/>
		</g>
		<g>
			<path fill="#062D47" d="M137.499,558.264c50.601-56.44,118.078-92.145,183.268-128.777c2.431-1.366-0.073-4.559-2.267-3.423&#10;&#9;&#9;&#9;&#9;c-67.08,34.731-133.784,73.102-184.718,130.024C132.096,557.973,135.905,560.042,137.499,558.264L137.499,558.264z" style="fill: rgb(255, 255, 255);"/>
		</g>
		<g>
			<path fill="#062D47" d="M191.684,490.719c27.235-21.048,56.528-38.873,87.149-54.545c2.087-1.068,0.155-4.174-1.763-3.281&#10;&#9;&#9;&#9;&#9;c-31.69,14.768-61.056,33.569-88.481,55.221C186.727,489.585,189.934,492.072,191.684,490.719L191.684,490.719z" style="fill: rgb(255, 255, 255);"/>
		</g>
		<g>
			<path fill="#062D47" d="M261.734,433.979c-3.829,12.35-7.545,24.731-11.262,37.115c-3.294,10.979-7.575,22.253-9.33,33.588&#10;&#9;&#9;&#9;&#9;c-0.284,1.837,2.894,3.434,3.721,1.464c9.388-22.354,14.526-47.454,20.959-70.817&#10;&#9;&#9;&#9;&#9;C266.469,432.98,262.461,431.633,261.734,433.979L261.734,433.979z" style="fill: rgb(255, 255, 255);"/>
		</g>
		<g>
			<path fill="#062D47" d="M247.646,448.801c-6.152,13.582-11.635,27.432-16.264,41.609c-4.142,12.686-8.901,26.244-10.284,39.566&#10;&#9;&#9;&#9;&#9;c-0.229,2.21,3.636,2.699,4.282,0.66c4.451-14.052,7.187-28.595,11.829-42.637c4.195-12.687,9.075-25.113,14.483-37.331&#10;&#9;&#9;&#9;&#9;C252.766,448.242,248.681,446.517,247.646,448.801L247.646,448.801z" style="fill: rgb(255, 255, 255);"/>
		</g>
		<g>
			<path fill="#062D47" d="M224.895,484.07c-3.881,14.147-8.067,28.205-12.64,42.145c-4.519,13.778-10.427,27.487-13.793,41.589&#10;&#9;&#9;&#9;&#9;c-0.279,1.168,1.262,2.685,2.037,1.26c13.784-25.341,20.958-56.051,28.552-83.734C229.704,482.95,225.548,481.687,224.895,484.07&#10;&#9;&#9;&#9;&#9;L224.895,484.07z" style="fill: rgb(255, 255, 255);"/>
		</g>
		<g>
			<path fill="#062D47" d="M178.235,526.568c-4.191,12.044-7.558,24.308-9.829,36.863c-1.536,8.49-5.161,20.585-0.786,28.566&#10;&#9;&#9;&#9;&#9;c0.834,1.522,3.121,0.987,3.077-0.737c-0.554-21.558,5.171-43.417,12.222-63.677&#10;&#9;&#9;&#9;&#9;C183.861,524.878,179.128,524.004,178.235,526.568L178.235,526.568z" style="fill: rgb(255, 255, 255);"/>
		</g>
		<g>
			<path fill="#062D47" d="M164.167,546.97c-5.163,19.452-10.922,39.984-11.356,60.216c-0.026,1.208,1.895,2.78,2.395,1.022&#10;&#9;&#9;&#9;&#9;c5.604-19.673,8.278-40.2,13.518-60.016C169.447,545.461,164.853,544.387,164.167,546.97L164.167,546.97z" style="fill: rgb(255, 255, 255);"/>
		</g>
		<g>
			<path fill="#062D47" d="M138.143,574.35c-3.122,15.63-4.982,33.629-0.845,49.224c0.361,1.36,3.197,2.031,3.257,0.182&#10;&#9;&#9;&#9;&#9;c0.529-16.349-0.491-32.005,1.464-48.385C142.278,573.198,138.615,571.989,138.143,574.35L138.143,574.35z" style="fill: rgb(255, 255, 255);"/>
		</g>
		<g>
			<path fill="#062D47" d="M78.238,650.021c10.073,20.201,17.567,41.448,25.471,62.559c6.94,18.534,14.027,40.896,27.871,55.552&#10;&#9;&#9;&#9;&#9;c1.349,1.428,3.889,0.459,2.953-1.613c-4.414-9.767-10.515-18.72-15.07-28.464c-4.514-9.657-8.452-19.568-12.3-29.506&#10;&#9;&#9;&#9;&#9;c-7.918-20.449-15.423-41.01-26.955-59.781C79.27,647.24,77.495,648.532,78.238,650.021L78.238,650.021z" style="fill: rgb(255, 255, 255);"/>
		</g>
		<g>
			<path fill="#062D47" d="M78.333,721.385c5.188,9.965,10.362,19.933,15.619,29.862c4.582,8.655,8.648,18.177,14.606,25.96&#10;&#9;&#9;&#9;&#9;c1.225,1.6,4.803,1.034,3.932-1.418c-7.015-19.74-19.662-38.521-29.648-56.93C81.427,716.251,76.897,718.626,78.333,721.385&#10;&#9;&#9;&#9;&#9;L78.333,721.385z" style="fill: rgb(255, 255, 255);"/>
		</g>
		<g>
			<path fill="#062D47" d="M73.392,733.691c8.178,19.732,16.209,39.914,27.244,58.238c0.939,1.559,4.273,1.22,3.43-0.965&#10;&#9;&#9;&#9;&#9;c-7.733-20.043-17.672-39.222-26.052-59.023C76.917,729.348,72.251,730.938,73.392,733.691L73.392,733.691z" style="fill: rgb(255, 255, 255);"/>
		</g>
		<g>
			<path fill="#062D47" d="M68.281,753.022c6.19,16.206,12.047,35.133,22.312,49.255c1.108,1.524,4.805,0.528,4.055-1.589&#10;&#9;&#9;&#9;&#9;c-5.915-16.707-15.392-32.38-21.985-48.929C71.821,749.644,67.396,750.704,68.281,753.022L68.281,753.022z" style="fill: rgb(255, 255, 255);"/>
		</g>
		<g>
			<path fill="#062D47" d="M67.887,776.224c3.61,6.487,7.738,12.639,12.569,18.285c4.201,4.911,9.231,11.113,15.258,13.713&#10;&#9;&#9;&#9;&#9;c1.956,0.843,3.99-1.138,2.688-2.976c-3.677-5.191-9.491-9.14-13.684-14.041c-4.551-5.32-8.464-11.067-11.867-17.182&#10;&#9;&#9;&#9;&#9;C71.314,771.264,66.349,773.461,67.887,776.224L67.887,776.224z" style="fill: rgb(255, 255, 255);"/>
		</g>
	</g>
</g>
</svg>