<svg version="1.2" xmlns="http://www.w3.org/2000/svg" width="933.333" height="933.333" viewBox="0 0 700.000000 700.000000"><path d="M249.8 217.4c-.1.2-3.2.6-6.8 1-8 .7-8.7.9-23.6 4.6-10.5 2.6-30.3 9.3-39.9 13.4-1.6.7-6.1 2.6-10 4.1-3.8 1.5-9.8 4.1-13.3 5.6-3.5 1.6-6.6 2.9-6.9 2.9-.3 0-6.3 2.9-13.3 6.5C79.5 284 44.9 320.7 34.1 363.6c-2.8 10.9-3 13.4-3.8 34.4-1.3 34.1-.9 58.8 1 65.1C35.2 476 44 482.4 58 482.4c7.9.1 15.9-.7 23.1-2.3 2.4-.5 6.6-1.2 9.3-1.6 2.7-.3 7.6-1.2 11-2 11.3-2.6 69.9-14.6 85.1-17.4 12.4-2.3 14.5-2.7 23-4.1 3.3-.5 7.1-1.2 8.5-1.5 1.4-.3 5.2-.8 8.5-1.1 3.3-.3 6.3-.8 6.6-1 .3-.1 3.9-.6 8-.9 4.1-.4 8.1-.8 8.9-1 6.5-1.7 43.5-2.5 59.5-1.3 12.2.9 17 2.2 30.6 8.3 10.7 4.9 27.3 11.1 32.1 12 1.2.3 3.5.9 5.2 1.4 3.6 1.2 29.6 7 34.1 7.6 10.7 1.6 23.2 3.3 24.5 3.3.8 0 5.1.3 9.5.7 16.2 1.6 51.5.7 84-1.9 4.4-.4 10.7-.9 14-1.1 3.3-.3 8.7-.7 12-1 3.3-.3 9.4-.7 13.5-1 4.2-.3 9.3-.7 11.5-.9 2.2-.2 7.6-.7 12-1.1 4.4-.3 8.7-.8 9.5-1 .8-.2 4-.7 7-1 6.2-.6 7.9-.9 20-3.1 28.4-5.3 42.5-14 41.4-25.6-.9-10.1-16-25.6-32.8-33.7-12.7-6.1-30.8-8.9-43.5-6.7l-4.3.8.7-3.3c.4-1.9 1.2-4 1.7-4.7.7-.8.7-1.2-.1-1.2-.7 0-.9-.5-.5-1.2 1.3-2.1 1.1-14.9-.3-22.8-4.3-23.5-19.7-46-44.4-64.7-22.4-16.9-56.6-32.8-97.4-45.2-24.9-7.5-73.1-21.3-93.5-26.7-3-.8-7.7-2.1-10.5-2.9-8-2.3-24.2-6.2-35-8.3-8.9-1.8-12.5-2.5-20-3.7-8.4-1.4-39.6-3-40.7-2.1z"/></svg>
